<svg width="1440" height="1024" viewBox="0 0 1440 1024" fill="none" xmlns="http://www.w3.org/2000/svg">
<rect width="1440" height="1024" fill="#535C72"/>
<rect x="634.35" y="478.35" width="170.3" height="66.3" rx="33.15" fill="#4F4F4F" stroke="url(#paint0_linear_103_2)" stroke-width="1.3"/>
<mask id="mask0_103_2" style="mask-type:alpha" maskUnits="userSpaceOnUse" x="635" y="479" width="169" height="65">
<rect x="635" y="479" width="169" height="65" rx="32.5" fill="black"/>
</mask>
<g mask="url(#mask0_103_2)">
<g filter="url(#filter0_i_103_2)">
<rect x="635" y="479" width="169" height="65" rx="32.5" fill="#1F2533"/>
</g>
<path d="M649.95 498.5L650.477 499.923L651.9 500.45L650.477 500.977L649.95 502.4L649.423 500.977L648 500.45L649.423 499.923L649.95 498.5Z" fill="#DEE5F3"/>
<path d="M673.35 508.9L673.877 510.323L675.3 510.85L673.877 511.377L673.35 512.8L672.823 511.377L671.4 510.85L672.823 510.323L673.35 508.9Z" fill="#DEE5F3"/>
<path d="M655.15 532.3L655.677 533.723L657.1 534.25L655.677 534.777L655.15 536.2L654.623 534.777L653.2 534.25L654.623 533.723L655.15 532.3Z" fill="#DEE5F3"/>
<path d="M661.65 512.8L661.826 513.274L662.3 513.45L661.826 513.626L661.65 514.1L661.474 513.626L661 513.45L661.474 513.274L661.65 512.8Z" fill="#DEE5F3"/>
<path d="M651.25 521.9L651.426 522.374L651.9 522.55L651.426 522.726L651.25 523.2L651.074 522.726L650.6 522.55L651.074 522.374L651.25 521.9Z" fill="#DEE5F3"/>
<path d="M665.875 534.9L666.138 535.612L666.85 535.875L666.138 536.138L665.875 536.85L665.612 536.138L664.9 535.875L665.612 535.612L665.875 534.9Z" fill="#DEE5F3"/>
<g filter="url(#filter1_f_103_2)">
<path d="M648.975 508.9L649.238 509.612L649.95 509.875L649.238 510.138L648.975 510.85L648.712 510.138L648 509.875L648.712 509.612L648.975 508.9Z" fill="#DEE5F3"/>
</g>
<path d="M643.45 528.4L643.626 528.874L644.1 529.05L643.626 529.226L643.45 529.7L643.274 529.226L642.8 529.05L643.274 528.874L643.45 528.4Z" fill="#DEE5F3"/>
<path d="M675.95 525.8L676.126 526.274L676.6 526.45L676.126 526.626L675.95 527.1L675.774 526.626L675.3 526.45L675.774 526.274L675.95 525.8Z" fill="#DEE5F3"/>
<path d="M664.25 492L664.426 492.474L664.9 492.65L664.426 492.826L664.25 493.3L664.074 492.826L663.6 492.65L664.074 492.474L664.25 492Z" fill="#DEE5F3"/>
<path d="M638.25 512.8L638.426 513.274L638.9 513.45L638.426 513.626L638.25 514.1L638.074 513.626L637.6 513.45L638.074 513.274L638.25 512.8Z" fill="#DEE5F3"/>
<path d="M683.75 485.5L684.277 486.923L685.7 487.45L684.277 487.977L683.75 489.4L683.223 487.977L681.8 487.45L683.223 486.923L683.75 485.5Z" fill="#DEE5F3"/>
<path d="M713.65 498.5L714.177 499.923L715.6 500.45L714.177 500.977L713.65 502.4L713.123 500.977L711.7 500.45L713.123 499.923L713.65 498.5Z" fill="#DEE5F3"/>
<path d="M695.45 528.4L695.977 529.823L697.4 530.35L695.977 530.877L695.45 532.3L694.923 530.877L693.5 530.35L694.923 529.823L695.45 528.4Z" fill="#DEE5F3"/>
<path d="M701.95 502.4L702.126 502.874L702.6 503.05L702.126 503.226L701.95 503.7L701.774 503.226L701.3 503.05L701.774 502.874L701.95 502.4Z" fill="#DEE5F3"/>
<path d="M696.75 516.7L696.926 517.174L697.4 517.35L696.926 517.526L696.75 518L696.574 517.526L696.1 517.35L696.574 517.174L696.75 516.7Z" fill="#DEE5F3"/>
<path d="M703.575 510.2L703.838 510.912L704.55 511.175L703.838 511.438L703.575 512.15L703.312 511.438L702.6 511.175L703.312 510.912L703.575 510.2Z" fill="#DEE5F3"/>
<g filter="url(#filter2_f_103_2)">
<path d="M689.275 498.5L689.538 499.212L690.25 499.475L689.538 499.738L689.275 500.45L689.012 499.738L688.3 499.475L689.012 499.212L689.275 498.5Z" fill="#DEE5F3"/>
</g>
<g filter="url(#filter3_f_103_2)">
<path d="M683.75 516.7L683.926 517.174L684.4 517.35L683.926 517.526L683.75 518L683.574 517.526L683.1 517.35L683.574 517.174L683.75 516.7Z" fill="#DEE5F3"/>
</g>
<path d="M716.25 515.4L716.426 515.874L716.9 516.05L716.426 516.226L716.25 516.7L716.074 516.226L715.6 516.05L716.074 515.874L716.25 515.4Z" fill="#DEE5F3"/>
<path d="M709.75 489.4L709.926 489.874L710.4 490.05L709.926 490.226L709.75 490.7L709.574 490.226L709.1 490.05L709.574 489.874L709.75 489.4Z" fill="#DEE5F3"/>
<path d="M678.55 502.4L678.726 502.874L679.2 503.05L678.726 503.226L678.55 503.7L678.374 503.226L677.9 503.05L678.374 502.874L678.55 502.4Z" fill="#DEE5F3"/>
</g>
<g filter="url(#filter4_dii_103_2)">
<rect width="53.6474" height="53.6474" rx="26.8237" transform="matrix(-1 3.99602e-09 3.99602e-09 1 798.1 484.703)" fill="#DEE5F3"/>
</g>
<path opacity="0.9" d="M770.59 487.928C759.708 485.326 748.756 491.951 746.01 502.797L745.896 503.243C743.113 514.233 749.882 525.37 760.919 527.96C771.99 530.559 783.129 523.63 785.728 512.559C788.301 501.595 781.542 490.547 770.59 487.928Z" fill="#1F2533" fill-opacity="0.79"/>
<defs>
<filter id="filter0_i_103_2" x="635" y="479" width="169" height="72.8" filterUnits="userSpaceOnUse" color-interpolation-filters="sRGB">
<feFlood flood-opacity="0" result="BackgroundImageFix"/>
<feBlend mode="normal" in="SourceGraphic" in2="BackgroundImageFix" result="shape"/>
<feColorMatrix in="SourceAlpha" type="matrix" values="0 0 0 0 0 0 0 0 0 0 0 0 0 0 0 0 0 0 127 0" result="hardAlpha"/>
<feOffset dy="7.8"/>
<feGaussianBlur stdDeviation="5.85"/>
<feComposite in2="hardAlpha" operator="arithmetic" k2="-1" k3="1"/>
<feColorMatrix type="matrix" values="0 0 0 0 0.0903125 0 0 0 0 0.105719 0 0 0 0 0.141667 0 0 0 1 0"/>
<feBlend mode="normal" in2="shape" result="effect1_innerShadow_103_2"/>
</filter>
<filter id="filter1_f_103_2" x="647.74" y="508.64" width="2.47001" height="2.47" filterUnits="userSpaceOnUse" color-interpolation-filters="sRGB">
<feFlood flood-opacity="0" result="BackgroundImageFix"/>
<feBlend mode="normal" in="SourceGraphic" in2="BackgroundImageFix" result="shape"/>
<feGaussianBlur stdDeviation="0.13" result="effect1_foregroundBlur_103_2"/>
</filter>
<filter id="filter2_f_103_2" x="688.04" y="498.24" width="2.47001" height="2.47" filterUnits="userSpaceOnUse" color-interpolation-filters="sRGB">
<feFlood flood-opacity="0" result="BackgroundImageFix"/>
<feBlend mode="normal" in="SourceGraphic" in2="BackgroundImageFix" result="shape"/>
<feGaussianBlur stdDeviation="0.13" result="effect1_foregroundBlur_103_2"/>
</filter>
<filter id="filter3_f_103_2" x="682.84" y="516.44" width="1.81999" height="1.82" filterUnits="userSpaceOnUse" color-interpolation-filters="sRGB">
<feFlood flood-opacity="0" result="BackgroundImageFix"/>
<feBlend mode="normal" in="SourceGraphic" in2="BackgroundImageFix" result="shape"/>
<feGaussianBlur stdDeviation="0.13" result="effect1_foregroundBlur_103_2"/>
</filter>
<filter id="filter4_dii_103_2" x="721.053" y="465.203" width="92.6473" height="92.6474" filterUnits="userSpaceOnUse" color-interpolation-filters="sRGB">
<feFlood flood-opacity="0" result="BackgroundImageFix"/>
<feColorMatrix in="SourceAlpha" type="matrix" values="0 0 0 0 0 0 0 0 0 0 0 0 0 0 0 0 0 0 127 0" result="hardAlpha"/>
<feOffset dx="-3.9"/>
<feGaussianBlur stdDeviation="9.75"/>
<feColorMatrix type="matrix" values="0 0 0 0 0.717122 0 0 0 0 0.717122 0 0 0 0 0.717122 0 0 0 0.31 0"/>
<feBlend mode="normal" in2="BackgroundImageFix" result="effect1_dropShadow_103_2"/>
<feBlend mode="normal" in="SourceGraphic" in2="effect1_dropShadow_103_2" result="shape"/>
<feColorMatrix in="SourceAlpha" type="matrix" values="0 0 0 0 0 0 0 0 0 0 0 0 0 0 0 0 0 0 127 0" result="hardAlpha"/>
<feOffset dy="2.6"/>
<feGaussianBlur stdDeviation="2.6"/>
<feComposite in2="hardAlpha" operator="arithmetic" k2="-1" k3="1"/>
<feColorMatrix type="matrix" values="0 0 0 0 0.747882 0 0 0 0 0.749977 0 0 0 0 0.754167 0 0 0 1 0"/>
<feBlend mode="normal" in2="shape" result="effect2_innerShadow_103_2"/>
<feColorMatrix in="SourceAlpha" type="matrix" values="0 0 0 0 0 0 0 0 0 0 0 0 0 0 0 0 0 0 127 0" result="hardAlpha"/>
<feOffset dy="-2.6"/>
<feGaussianBlur stdDeviation="2.6"/>
<feComposite in2="hardAlpha" operator="arithmetic" k2="-1" k3="1"/>
<feColorMatrix type="matrix" values="0 0 0 0 1 0 0 0 0 1 0 0 0 0 1 0 0 0 1 0"/>
<feBlend mode="normal" in2="effect2_innerShadow_103_2" result="effect3_innerShadow_103_2"/>
</filter>
<linearGradient id="paint0_linear_103_2" x1="721.45" y1="463.4" x2="722.1" y2="564.15" gradientUnits="userSpaceOnUse">
<stop offset="0.125"/>
<stop offset="1" stop-color="white" stop-opacity="0"/>
</linearGradient>
</defs>
</svg>
